<mxfile host="app.diagrams.net" modified="2021-05-30T19:59:13.530Z" agent="5.0 (Macintosh; Intel Mac OS X 10_15_7) AppleWebKit/605.1.15 (KHTML, like Gecko) Version/14.1.1 Safari/605.1.15" etag="vvvnZ9Wp48K_ADyHmfZL" version="14.7.0" type="github">
  <diagram id="8aN0rm1MY_QhQ1KlozjM" name="Page-1">
    <mxGraphModel dx="1200" dy="727" grid="1" gridSize="10" guides="1" tooltips="1" connect="1" arrows="1" fold="1" page="1" pageScale="1" pageWidth="850" pageHeight="1100" math="0" shadow="0">
      <root>
        <mxCell id="0" />
        <mxCell id="1" parent="0" />
        <mxCell id="Cx3Qpiqb-a-1uhkqveDJ-6" value="" style="group;movable=0;resizable=0;rotatable=0;deletable=0;editable=0;connectable=0;container=0;" vertex="1" connectable="0" parent="1">
          <mxGeometry x="80" y="190" width="640" height="280" as="geometry" />
        </mxCell>
        <mxCell id="Cx3Qpiqb-a-1uhkqveDJ-56" value="Coneflower &quot;PowWow&quot;" style="ellipse;whiteSpace=wrap;html=1;aspect=fixed;fillColor=#f5f5f5;strokeColor=#666666;fontColor=#333333;" vertex="1" parent="1">
          <mxGeometry x="440" y="230" width="80" height="80" as="geometry" />
        </mxCell>
        <mxCell id="Cx3Qpiqb-a-1uhkqveDJ-4" value="Hydrangea &quot;Seaside Serenade Cape Cod&quot; - 4&#39; H" style="ellipse;whiteSpace=wrap;html=1;aspect=fixed;fillColor=#008a00;strokeColor=#005700;fontColor=#ffffff;" vertex="1" parent="1">
          <mxGeometry x="75" y="240" width="160" height="160" as="geometry" />
        </mxCell>
        <mxCell id="Cx3Qpiqb-a-1uhkqveDJ-57" value="" style="group" vertex="1" connectable="0" parent="1">
          <mxGeometry x="65" y="100" width="40" height="40" as="geometry" />
        </mxCell>
        <mxCell id="Cx3Qpiqb-a-1uhkqveDJ-12" value="" style="ellipse;whiteSpace=wrap;html=1;aspect=fixed;fillColor=#e1d5e7;strokeColor=#9673a6;" vertex="1" parent="Cx3Qpiqb-a-1uhkqveDJ-57">
          <mxGeometry width="40" height="40" as="geometry" />
        </mxCell>
        <mxCell id="Cx3Qpiqb-a-1uhkqveDJ-13" value="" style="ellipse;whiteSpace=wrap;html=1;aspect=fixed;strokeColor=#3700CC;fontColor=#ffffff;fillColor=#6a00ff;" vertex="1" parent="Cx3Qpiqb-a-1uhkqveDJ-57">
          <mxGeometry x="5" y="5" width="30" height="30" as="geometry" />
        </mxCell>
        <mxCell id="Cx3Qpiqb-a-1uhkqveDJ-68" value="Hosta &#39;Halcyon&#39;" style="ellipse;whiteSpace=wrap;html=1;aspect=fixed;fillColor=#008a00;strokeColor=#005700;fontColor=#ffffff;" vertex="1" parent="1">
          <mxGeometry x="655" y="420" width="100" height="100" as="geometry" />
        </mxCell>
        <mxCell id="Cx3Qpiqb-a-1uhkqveDJ-72" value="Scottish Hair Grass" style="ellipse;whiteSpace=wrap;html=1;aspect=fixed;fillColor=#d5e8d4;strokeColor=#82b366;" vertex="1" parent="1">
          <mxGeometry x="330" y="150" width="60" height="60" as="geometry" />
        </mxCell>
        <mxCell id="Cx3Qpiqb-a-1uhkqveDJ-73" value="Scottish Hair Grass" style="ellipse;whiteSpace=wrap;html=1;aspect=fixed;fillColor=#d5e8d4;strokeColor=#82b366;" vertex="1" parent="1">
          <mxGeometry x="220" y="110" width="60" height="60" as="geometry" />
        </mxCell>
        <mxCell id="Cx3Qpiqb-a-1uhkqveDJ-74" value="Peony &#39;Festiva Maxima&#39;?&amp;nbsp;- 30&quot; H" style="ellipse;whiteSpace=wrap;html=1;aspect=fixed;fillColor=#008a00;strokeColor=#005700;fontColor=#ffffff;" vertex="1" parent="1">
          <mxGeometry x="485" y="400" width="100" height="100" as="geometry" />
        </mxCell>
        <mxCell id="Cx3Qpiqb-a-1uhkqveDJ-76" value="" style="endArrow=none;html=1;dashed=1;" edge="1" parent="1">
          <mxGeometry width="50" height="50" relative="1" as="geometry">
            <mxPoint x="285" y="520" as="sourcePoint" />
            <mxPoint x="285" y="280" as="targetPoint" />
          </mxGeometry>
        </mxCell>
        <mxCell id="Cx3Qpiqb-a-1uhkqveDJ-1" value="" style="endArrow=none;html=1;" edge="1" parent="1">
          <mxGeometry x="45" y="240" width="50" height="50" as="geometry">
            <mxPoint x="45" y="520" as="sourcePoint" />
            <mxPoint x="45" y="40" as="targetPoint" />
          </mxGeometry>
        </mxCell>
        <mxCell id="Cx3Qpiqb-a-1uhkqveDJ-80" value="12&#39;" style="edgeLabel;html=1;align=center;verticalAlign=middle;resizable=0;points=[];fontSize=13;" vertex="1" connectable="0" parent="Cx3Qpiqb-a-1uhkqveDJ-1">
          <mxGeometry relative="1" as="geometry">
            <mxPoint x="-15" y="-30" as="offset" />
          </mxGeometry>
        </mxCell>
        <mxCell id="Cx3Qpiqb-a-1uhkqveDJ-2" value="" style="endArrow=none;html=1;" edge="1" parent="1">
          <mxGeometry x="45" y="240" width="50" height="50" as="geometry">
            <mxPoint x="45" y="520" as="sourcePoint" />
            <mxPoint x="765" y="520" as="targetPoint" />
          </mxGeometry>
        </mxCell>
        <mxCell id="Cx3Qpiqb-a-1uhkqveDJ-81" value="18&#39;" style="edgeLabel;html=1;align=center;verticalAlign=middle;resizable=0;points=[];fontSize=13;" vertex="1" connectable="0" parent="Cx3Qpiqb-a-1uhkqveDJ-2">
          <mxGeometry relative="1" as="geometry">
            <mxPoint y="10" as="offset" />
          </mxGeometry>
        </mxCell>
        <mxCell id="Cx3Qpiqb-a-1uhkqveDJ-3" value="" style="curved=1;endArrow=classic;html=1;" edge="1" parent="1">
          <mxGeometry x="45" y="240" width="50" height="50" as="geometry">
            <mxPoint x="45" y="40" as="sourcePoint" />
            <mxPoint x="765" y="520" as="targetPoint" />
            <Array as="points">
              <mxPoint x="435" y="160" />
              <mxPoint x="755" y="350" />
            </Array>
          </mxGeometry>
        </mxCell>
        <mxCell id="Cx3Qpiqb-a-1uhkqveDJ-77" value="" style="endArrow=none;html=1;dashed=1;startArrow=none;" edge="1" parent="1" source="Cx3Qpiqb-a-1uhkqveDJ-59">
          <mxGeometry width="50" height="50" relative="1" as="geometry">
            <mxPoint x="525" y="520" as="sourcePoint" />
            <mxPoint x="525" y="280" as="targetPoint" />
          </mxGeometry>
        </mxCell>
        <mxCell id="Cx3Qpiqb-a-1uhkqveDJ-78" value="" style="endArrow=none;dashed=1;html=1;strokeWidth=1;" edge="1" parent="1">
          <mxGeometry width="50" height="50" relative="1" as="geometry">
            <mxPoint x="45" y="280" as="sourcePoint" />
            <mxPoint x="635" y="280" as="targetPoint" />
          </mxGeometry>
        </mxCell>
        <mxCell id="Cx3Qpiqb-a-1uhkqveDJ-79" value="" style="endArrow=none;dashed=1;html=1;dashPattern=1 3;strokeWidth=2;" edge="1" parent="1">
          <mxGeometry width="50" height="50" relative="1" as="geometry">
            <mxPoint x="405" y="520" as="sourcePoint" />
            <mxPoint x="405" y="160" as="targetPoint" />
          </mxGeometry>
        </mxCell>
        <mxCell id="Cx3Qpiqb-a-1uhkqveDJ-93" value="Salvia &quot;New Dimensions Blue&quot; (8-12&quot; H)" style="text;html=1;align=center;verticalAlign=middle;resizable=0;points=[];autosize=1;strokeColor=none;" vertex="1" parent="1">
          <mxGeometry x="65" y="80" width="230" height="20" as="geometry" />
        </mxCell>
        <mxCell id="Cx3Qpiqb-a-1uhkqveDJ-101" value="" style="group" vertex="1" connectable="0" parent="1">
          <mxGeometry x="40" y="620" width="240" height="240" as="geometry" />
        </mxCell>
        <mxCell id="Cx3Qpiqb-a-1uhkqveDJ-97" value="" style="ellipse;whiteSpace=wrap;html=1;aspect=fixed;fillColor=#ffcccc;strokeColor=#36393d;" vertex="1" parent="Cx3Qpiqb-a-1uhkqveDJ-101">
          <mxGeometry width="240" height="240" as="geometry" />
        </mxCell>
        <mxCell id="Cx3Qpiqb-a-1uhkqveDJ-100" value="Cotinus Coggygria &quot;Winecraft Black&quot; - 4&#39;-6&#39; H" style="ellipse;whiteSpace=wrap;html=1;aspect=fixed;fillColor=#a20025;strokeColor=#6F0000;fontColor=#ffffff;" vertex="1" parent="Cx3Qpiqb-a-1uhkqveDJ-101">
          <mxGeometry x="40" y="40" width="160" height="160" as="geometry" />
        </mxCell>
        <mxCell id="Cx3Qpiqb-a-1uhkqveDJ-102" value="" style="shape=flexArrow;endArrow=classic;html=1;dashed=1;fontColor=#000000;strokeWidth=1;gradientColor=#ffd966;fillColor=#fff2cc;gradientDirection=west;strokeColor=none;" edge="1" parent="1">
          <mxGeometry width="50" height="50" relative="1" as="geometry">
            <mxPoint x="765" y="560" as="sourcePoint" />
            <mxPoint x="45" y="560" as="targetPoint" />
          </mxGeometry>
        </mxCell>
        <mxCell id="Cx3Qpiqb-a-1uhkqveDJ-103" value="More sun" style="text;html=1;align=center;verticalAlign=middle;resizable=0;points=[];autosize=1;strokeColor=none;fontColor=#000000;" vertex="1" parent="1">
          <mxGeometry x="30" y="520" width="70" height="20" as="geometry" />
        </mxCell>
        <mxCell id="Cx3Qpiqb-a-1uhkqveDJ-104" value="More shade" style="text;html=1;align=center;verticalAlign=middle;resizable=0;points=[];autosize=1;strokeColor=none;fontColor=#000000;" vertex="1" parent="1">
          <mxGeometry x="695" y="520" width="80" height="20" as="geometry" />
        </mxCell>
        <mxCell id="Cx3Qpiqb-a-1uhkqveDJ-105" value="Plants I want" style="text;html=1;align=center;verticalAlign=middle;resizable=0;points=[];autosize=1;strokeColor=none;fontColor=#000000;fontStyle=1;fontSize=20;" vertex="1" parent="1">
          <mxGeometry x="40" y="585" width="140" height="30" as="geometry" />
        </mxCell>
        <mxCell id="Cx3Qpiqb-a-1uhkqveDJ-107" value="Stachys? Phlox? Dusty Miller?" style="text;html=1;align=center;verticalAlign=middle;resizable=0;points=[];autosize=1;strokeColor=none;fontSize=13;fontColor=#000000;" vertex="1" parent="1">
          <mxGeometry x="510" y="615" width="190" height="20" as="geometry" />
        </mxCell>
        <mxCell id="Cx3Qpiqb-a-1uhkqveDJ-108" value="" style="endArrow=none;dashed=1;html=1;fontSize=20;fontColor=#000000;strokeColor=#663300;strokeWidth=1;startArrow=none;" edge="1" parent="1" source="Cx3Qpiqb-a-1uhkqveDJ-67">
          <mxGeometry width="50" height="50" relative="1" as="geometry">
            <mxPoint x="260" y="520" as="sourcePoint" />
            <mxPoint x="440" y="180" as="targetPoint" />
            <Array as="points" />
          </mxGeometry>
        </mxCell>
        <mxCell id="Cx3Qpiqb-a-1uhkqveDJ-110" value="" style="endArrow=none;dashed=1;html=1;dashPattern=1 3;strokeWidth=2;fontSize=12;fontColor=#000000;strokeColor=#7EA6E0;startArrow=none;" edge="1" parent="1" source="Cx3Qpiqb-a-1uhkqveDJ-60">
          <mxGeometry width="50" height="50" relative="1" as="geometry">
            <mxPoint x="640" y="440" as="sourcePoint" />
            <mxPoint x="60" y="70" as="targetPoint" />
          </mxGeometry>
        </mxCell>
        <mxCell id="Cx3Qpiqb-a-1uhkqveDJ-113" value="" style="group" vertex="1" connectable="0" parent="1">
          <mxGeometry x="105" y="400" width="120" height="120" as="geometry" />
        </mxCell>
        <mxCell id="Cx3Qpiqb-a-1uhkqveDJ-111" value="" style="ellipse;whiteSpace=wrap;html=1;aspect=fixed;fontSize=12;fillColor=#d0cee2;strokeColor=#56517e;" vertex="1" parent="Cx3Qpiqb-a-1uhkqveDJ-113">
          <mxGeometry width="120" height="120" as="geometry" />
        </mxCell>
        <mxCell id="Cx3Qpiqb-a-1uhkqveDJ-112" value="Nepeta &quot;Walker&#39;s Low&quot;" style="ellipse;whiteSpace=wrap;html=1;aspect=fixed;fontSize=12;fontColor=#ffffff;fillColor=#76608a;strokeColor=#432D57;" vertex="1" parent="Cx3Qpiqb-a-1uhkqveDJ-113">
          <mxGeometry x="10" y="10" width="100" height="100" as="geometry" />
        </mxCell>
        <mxCell id="Cx3Qpiqb-a-1uhkqveDJ-114" value="" style="group" vertex="1" connectable="0" parent="1">
          <mxGeometry x="160" y="160" width="120" height="120" as="geometry" />
        </mxCell>
        <mxCell id="Cx3Qpiqb-a-1uhkqveDJ-115" value="" style="ellipse;whiteSpace=wrap;html=1;aspect=fixed;fontSize=12;fillColor=#d0cee2;strokeColor=#56517e;" vertex="1" parent="Cx3Qpiqb-a-1uhkqveDJ-114">
          <mxGeometry width="120" height="120" as="geometry" />
        </mxCell>
        <mxCell id="Cx3Qpiqb-a-1uhkqveDJ-116" value="Nepeta &quot;Walker&#39;s Low&quot;" style="ellipse;whiteSpace=wrap;html=1;aspect=fixed;fontSize=12;fontColor=#ffffff;fillColor=#76608a;strokeColor=#432D57;" vertex="1" parent="Cx3Qpiqb-a-1uhkqveDJ-114">
          <mxGeometry x="10" y="10" width="100" height="100" as="geometry" />
        </mxCell>
        <mxCell id="Cx3Qpiqb-a-1uhkqveDJ-117" value="" style="group" vertex="1" connectable="0" parent="1">
          <mxGeometry x="25" y="410" width="120" height="120" as="geometry" />
        </mxCell>
        <mxCell id="Cx3Qpiqb-a-1uhkqveDJ-118" value="" style="ellipse;whiteSpace=wrap;html=1;aspect=fixed;fontSize=12;fillColor=#d0cee2;strokeColor=#56517e;" vertex="1" parent="Cx3Qpiqb-a-1uhkqveDJ-117">
          <mxGeometry width="120" height="120" as="geometry" />
        </mxCell>
        <mxCell id="Cx3Qpiqb-a-1uhkqveDJ-119" value="Nepeta &quot;Walker&#39;s Low&quot;" style="ellipse;whiteSpace=wrap;html=1;aspect=fixed;fontSize=12;fontColor=#ffffff;fillColor=#76608a;strokeColor=#432D57;" vertex="1" parent="Cx3Qpiqb-a-1uhkqveDJ-117">
          <mxGeometry x="10" y="10" width="100" height="100" as="geometry" />
        </mxCell>
        <mxCell id="Cx3Qpiqb-a-1uhkqveDJ-120" value="" style="group" vertex="1" connectable="0" parent="1">
          <mxGeometry x="200" y="350" width="120" height="120" as="geometry" />
        </mxCell>
        <mxCell id="Cx3Qpiqb-a-1uhkqveDJ-121" value="" style="ellipse;whiteSpace=wrap;html=1;aspect=fixed;fontSize=12;fillColor=#d0cee2;strokeColor=#56517e;" vertex="1" parent="Cx3Qpiqb-a-1uhkqveDJ-120">
          <mxGeometry width="120" height="120" as="geometry" />
        </mxCell>
        <mxCell id="Cx3Qpiqb-a-1uhkqveDJ-122" value="Nepeta &quot;Walker&#39;s Low&quot;" style="ellipse;whiteSpace=wrap;html=1;aspect=fixed;fontSize=12;fontColor=#ffffff;fillColor=#76608a;strokeColor=#432D57;" vertex="1" parent="Cx3Qpiqb-a-1uhkqveDJ-120">
          <mxGeometry x="10" y="10" width="100" height="100" as="geometry" />
        </mxCell>
        <mxCell id="Cx3Qpiqb-a-1uhkqveDJ-123" value="" style="group" vertex="1" connectable="0" parent="1">
          <mxGeometry x="55" y="150" width="120" height="120" as="geometry" />
        </mxCell>
        <mxCell id="Cx3Qpiqb-a-1uhkqveDJ-124" value="" style="ellipse;whiteSpace=wrap;html=1;aspect=fixed;fontSize=12;fillColor=#d0cee2;strokeColor=#56517e;" vertex="1" parent="Cx3Qpiqb-a-1uhkqveDJ-123">
          <mxGeometry width="120" height="120" as="geometry" />
        </mxCell>
        <mxCell id="Cx3Qpiqb-a-1uhkqveDJ-125" value="Nepeta &quot;Walker&#39;s Low&quot;" style="ellipse;whiteSpace=wrap;html=1;aspect=fixed;fontSize=12;fontColor=#ffffff;fillColor=#76608a;strokeColor=#432D57;" vertex="1" parent="Cx3Qpiqb-a-1uhkqveDJ-123">
          <mxGeometry x="10" y="10" width="100" height="100" as="geometry" />
        </mxCell>
        <mxCell id="Cx3Qpiqb-a-1uhkqveDJ-67" value="Water feature of approximate size" style="rounded=0;whiteSpace=wrap;html=1;fillColor=#0050ef;strokeColor=#001DBC;fontColor=#ffffff;" vertex="1" parent="1">
          <mxGeometry x="305" y="410" width="120" height="80" as="geometry" />
        </mxCell>
        <mxCell id="Cx3Qpiqb-a-1uhkqveDJ-128" value="Coneflower &quot;PowWow&quot;" style="ellipse;whiteSpace=wrap;html=1;aspect=fixed;fillColor=#f5f5f5;strokeColor=#666666;fontColor=#333333;" vertex="1" parent="1">
          <mxGeometry x="510" y="330" width="80" height="80" as="geometry" />
        </mxCell>
        <mxCell id="Cx3Qpiqb-a-1uhkqveDJ-129" value="" style="group" vertex="1" connectable="0" parent="1">
          <mxGeometry x="290" y="140" width="40" height="40" as="geometry" />
        </mxCell>
        <mxCell id="Cx3Qpiqb-a-1uhkqveDJ-130" value="" style="ellipse;whiteSpace=wrap;html=1;aspect=fixed;fillColor=#e1d5e7;strokeColor=#9673a6;" vertex="1" parent="Cx3Qpiqb-a-1uhkqveDJ-129">
          <mxGeometry width="40" height="40" as="geometry" />
        </mxCell>
        <mxCell id="Cx3Qpiqb-a-1uhkqveDJ-131" value="" style="ellipse;whiteSpace=wrap;html=1;aspect=fixed;strokeColor=#3700CC;fontColor=#ffffff;fillColor=#6a00ff;" vertex="1" parent="Cx3Qpiqb-a-1uhkqveDJ-129">
          <mxGeometry x="5" y="5" width="30" height="30" as="geometry" />
        </mxCell>
        <mxCell id="Cx3Qpiqb-a-1uhkqveDJ-133" value="" style="group" vertex="1" connectable="0" parent="1">
          <mxGeometry x="160" y="100" width="40" height="40" as="geometry" />
        </mxCell>
        <mxCell id="Cx3Qpiqb-a-1uhkqveDJ-134" value="" style="ellipse;whiteSpace=wrap;html=1;aspect=fixed;fillColor=#e1d5e7;strokeColor=#9673a6;" vertex="1" parent="Cx3Qpiqb-a-1uhkqveDJ-133">
          <mxGeometry width="40" height="40" as="geometry" />
        </mxCell>
        <mxCell id="Cx3Qpiqb-a-1uhkqveDJ-135" value="" style="ellipse;whiteSpace=wrap;html=1;aspect=fixed;strokeColor=#3700CC;fontColor=#ffffff;fillColor=#6a00ff;" vertex="1" parent="Cx3Qpiqb-a-1uhkqveDJ-133">
          <mxGeometry x="5" y="5" width="30" height="30" as="geometry" />
        </mxCell>
        <mxCell id="Cx3Qpiqb-a-1uhkqveDJ-136" value="" style="group" vertex="1" connectable="0" parent="1">
          <mxGeometry x="405" y="180" width="40" height="40" as="geometry" />
        </mxCell>
        <mxCell id="Cx3Qpiqb-a-1uhkqveDJ-137" value="" style="ellipse;whiteSpace=wrap;html=1;aspect=fixed;fillColor=#e1d5e7;strokeColor=#9673a6;" vertex="1" parent="Cx3Qpiqb-a-1uhkqveDJ-136">
          <mxGeometry width="40" height="40" as="geometry" />
        </mxCell>
        <mxCell id="Cx3Qpiqb-a-1uhkqveDJ-138" value="" style="ellipse;whiteSpace=wrap;html=1;aspect=fixed;strokeColor=#3700CC;fontColor=#ffffff;fillColor=#6a00ff;" vertex="1" parent="Cx3Qpiqb-a-1uhkqveDJ-136">
          <mxGeometry x="5" y="5" width="30" height="30" as="geometry" />
        </mxCell>
        <mxCell id="Cx3Qpiqb-a-1uhkqveDJ-60" value="Coneflower &quot;PowWow&quot; - 16-20&quot; H" style="ellipse;whiteSpace=wrap;html=1;aspect=fixed;fillColor=#f5f5f5;strokeColor=#666666;fontColor=#333333;" vertex="1" parent="1">
          <mxGeometry x="440" y="310" width="80" height="80" as="geometry" />
        </mxCell>
        <mxCell id="Cx3Qpiqb-a-1uhkqveDJ-139" value="" style="endArrow=none;dashed=1;html=1;dashPattern=1 3;strokeWidth=2;fontSize=12;fontColor=#000000;strokeColor=#7EA6E0;" edge="1" parent="1" target="Cx3Qpiqb-a-1uhkqveDJ-60">
          <mxGeometry width="50" height="50" relative="1" as="geometry">
            <mxPoint x="640" y="440" as="sourcePoint" />
            <mxPoint x="60" y="70" as="targetPoint" />
          </mxGeometry>
        </mxCell>
        <mxCell id="Cx3Qpiqb-a-1uhkqveDJ-140" value="" style="group" vertex="1" connectable="0" parent="1">
          <mxGeometry x="520" y="230" width="40" height="40" as="geometry" />
        </mxCell>
        <mxCell id="Cx3Qpiqb-a-1uhkqveDJ-141" value="" style="ellipse;whiteSpace=wrap;html=1;aspect=fixed;fillColor=#e1d5e7;strokeColor=#9673a6;" vertex="1" parent="Cx3Qpiqb-a-1uhkqveDJ-140">
          <mxGeometry width="40" height="40" as="geometry" />
        </mxCell>
        <mxCell id="Cx3Qpiqb-a-1uhkqveDJ-142" value="" style="ellipse;whiteSpace=wrap;html=1;aspect=fixed;strokeColor=#3700CC;fontColor=#ffffff;fillColor=#6a00ff;" vertex="1" parent="Cx3Qpiqb-a-1uhkqveDJ-140">
          <mxGeometry x="5" y="5" width="30" height="30" as="geometry" />
        </mxCell>
        <mxCell id="Cx3Qpiqb-a-1uhkqveDJ-144" value="Delphinium, Foxglove, Russian Sage" style="text;html=1;align=center;verticalAlign=middle;resizable=0;points=[];autosize=1;strokeColor=none;fontSize=12;fontColor=#000000;" vertex="1" parent="1">
          <mxGeometry x="510" y="585" width="210" height="20" as="geometry" />
        </mxCell>
        <mxCell id="Cx3Qpiqb-a-1uhkqveDJ-149" value="" style="group" vertex="1" connectable="0" parent="1">
          <mxGeometry x="235" y="230" width="120" height="120" as="geometry" />
        </mxCell>
        <mxCell id="Cx3Qpiqb-a-1uhkqveDJ-146" value="" style="ellipse;whiteSpace=wrap;html=1;fontSize=12;fillColor=#cce5ff;strokeColor=#36393d;" vertex="1" parent="Cx3Qpiqb-a-1uhkqveDJ-149">
          <mxGeometry width="120" height="120" as="geometry" />
        </mxCell>
        <mxCell id="Cx3Qpiqb-a-1uhkqveDJ-145" value="Baptisia &#39;Lunar Eclipse&#39;" style="ellipse;whiteSpace=wrap;html=1;fontSize=12;fontColor=#ffffff;fillColor=#647687;strokeColor=#314354;" vertex="1" parent="Cx3Qpiqb-a-1uhkqveDJ-149">
          <mxGeometry x="20" y="20" width="80" height="80" as="geometry" />
        </mxCell>
        <mxCell id="Cx3Qpiqb-a-1uhkqveDJ-150" value="" style="group" vertex="1" connectable="0" parent="1">
          <mxGeometry x="305" y="300" width="120" height="120" as="geometry" />
        </mxCell>
        <mxCell id="Cx3Qpiqb-a-1uhkqveDJ-151" value="" style="ellipse;whiteSpace=wrap;html=1;fontSize=12;fillColor=#cce5ff;strokeColor=#36393d;" vertex="1" parent="Cx3Qpiqb-a-1uhkqveDJ-150">
          <mxGeometry width="120" height="120" as="geometry" />
        </mxCell>
        <mxCell id="Cx3Qpiqb-a-1uhkqveDJ-152" value="Baptisia &#39;Lunar Eclipse&#39;" style="ellipse;whiteSpace=wrap;html=1;fontSize=12;fontColor=#ffffff;fillColor=#647687;strokeColor=#314354;" vertex="1" parent="Cx3Qpiqb-a-1uhkqveDJ-150">
          <mxGeometry x="20" y="20" width="80" height="80" as="geometry" />
        </mxCell>
        <mxCell id="Cx3Qpiqb-a-1uhkqveDJ-153" value="" style="group" vertex="1" connectable="0" parent="1">
          <mxGeometry x="330" y="210" width="120" height="120" as="geometry" />
        </mxCell>
        <mxCell id="Cx3Qpiqb-a-1uhkqveDJ-154" value="" style="ellipse;whiteSpace=wrap;html=1;fontSize=12;fillColor=#cce5ff;strokeColor=#36393d;" vertex="1" parent="Cx3Qpiqb-a-1uhkqveDJ-153">
          <mxGeometry width="120" height="120" as="geometry" />
        </mxCell>
        <mxCell id="Cx3Qpiqb-a-1uhkqveDJ-155" value="Baptisia &#39;Lunar Eclipse&#39;" style="ellipse;whiteSpace=wrap;html=1;fontSize=12;fontColor=#ffffff;fillColor=#647687;strokeColor=#314354;" vertex="1" parent="Cx3Qpiqb-a-1uhkqveDJ-153">
          <mxGeometry x="20" y="20" width="80" height="80" as="geometry" />
        </mxCell>
        <mxCell id="Cx3Qpiqb-a-1uhkqveDJ-59" value="Coneflower &quot;PowWow&quot;" style="ellipse;whiteSpace=wrap;html=1;aspect=fixed;fillColor=#f5f5f5;strokeColor=#666666;fontColor=#333333;" vertex="1" parent="1">
          <mxGeometry x="495" y="270" width="80" height="80" as="geometry" />
        </mxCell>
        <mxCell id="Cx3Qpiqb-a-1uhkqveDJ-156" value="" style="endArrow=none;html=1;dashed=1;" edge="1" parent="1" target="Cx3Qpiqb-a-1uhkqveDJ-59">
          <mxGeometry width="50" height="50" relative="1" as="geometry">
            <mxPoint x="525" y="520" as="sourcePoint" />
            <mxPoint x="525" y="280" as="targetPoint" />
          </mxGeometry>
        </mxCell>
      </root>
    </mxGraphModel>
  </diagram>
</mxfile>
